<mxfile host="app.diagrams.net" modified="2023-10-27T12:54:12.589Z" agent="Mozilla/5.0 (Windows NT 10.0; Win64; x64) AppleWebKit/537.36 (KHTML, like Gecko) Chrome/118.0.0.0 Safari/537.36 Edg/118.0.2088.69" etag="HFuUNtoJK1M_EhcdTkgc" version="22.0.8" type="google">
  <diagram name="Page-1" id="a9kUi-oIh90k_mhfRICF">
    <mxGraphModel grid="1" page="1" gridSize="10" guides="1" tooltips="1" connect="1" arrows="1" fold="1" pageScale="1" pageWidth="850" pageHeight="1100" math="0" shadow="0">
      <root>
        <mxCell id="0" />
        <mxCell id="1" parent="0" />
        <mxCell id="iPS63DYJvoAkcIBALWGQ-1" value="Switches are prone to:&lt;br&gt;-Aging&lt;br&gt;-Agent Mishandling&lt;br&gt;-Friction Wear&lt;br&gt;-Nuisance Tripping" style="text;html=1;strokeColor=none;fillColor=none;align=center;verticalAlign=middle;whiteSpace=wrap;rounded=0;" vertex="1" parent="1">
          <mxGeometry x="50" y="490" width="180" height="90" as="geometry" />
        </mxCell>
        <mxCell id="iPS63DYJvoAkcIBALWGQ-2" value="" style="ellipse;whiteSpace=wrap;html=1;aspect=fixed;rotation=0;" vertex="1" parent="1">
          <mxGeometry x="200" y="370" width="480" height="480" as="geometry" />
        </mxCell>
        <mxCell id="iPS63DYJvoAkcIBALWGQ-26" value="&lt;font style=&quot;font-size: 10px;&quot;&gt;Aging&lt;/font&gt;" style="ellipse;whiteSpace=wrap;html=1;aspect=fixed;fillColor=#FFFFFF;strokeColor=#F19C99;strokeWidth=2;dashed=1;dashPattern=8 8;" vertex="1" parent="1">
          <mxGeometry x="240" y="595" width="50" height="50" as="geometry" />
        </mxCell>
        <mxCell id="iPS63DYJvoAkcIBALWGQ-27" value="&lt;font style=&quot;font-size: 10px;&quot;&gt;Human Action&amp;nbsp;&lt;/font&gt;" style="ellipse;whiteSpace=wrap;html=1;aspect=fixed;fillColor=#FFFFFF;strokeColor=#F19C99;strokeWidth=2;dashed=1;dashPattern=8 8;" vertex="1" parent="1">
          <mxGeometry x="270" y="470" width="50" height="50" as="geometry" />
        </mxCell>
        <mxCell id="iPS63DYJvoAkcIBALWGQ-28" value="" style="shape=flexArrow;endArrow=classic;html=1;rounded=0;width=0.3225806451612903;endSize=1.064804469273743;endWidth=2.980717246350694;strokeColor=#F19C99;" edge="1" parent="1" source="iPS63DYJvoAkcIBALWGQ-26" target="iPS63DYJvoAkcIBALWGQ-37">
          <mxGeometry width="50" height="50" relative="1" as="geometry">
            <mxPoint x="622" y="-15" as="sourcePoint" />
            <mxPoint x="340.4192133254892" y="652.9959058299014" as="targetPoint" />
          </mxGeometry>
        </mxCell>
        <mxCell id="iPS63DYJvoAkcIBALWGQ-29" value="&lt;font style=&quot;font-size: 10px;&quot;&gt;Incorrect maintenance procedure&lt;/font&gt;" style="ellipse;whiteSpace=wrap;html=1;aspect=fixed;fillColor=#FFFFFF;strokeColor=#F19C99;strokeWidth=2;dashed=1;dashPattern=8 8;" vertex="1" parent="1">
          <mxGeometry x="310" y="555" width="50" height="50" as="geometry" />
        </mxCell>
        <mxCell id="iPS63DYJvoAkcIBALWGQ-30" value="" style="shape=flexArrow;endArrow=classic;html=1;rounded=0;width=0.3225806451612903;endSize=1.064804469273743;endWidth=2.980717246350694;strokeColor=#F19C99;" edge="1" parent="1" source="iPS63DYJvoAkcIBALWGQ-29" target="iPS63DYJvoAkcIBALWGQ-37">
          <mxGeometry width="50" height="50" relative="1" as="geometry">
            <mxPoint x="445" y="625" as="sourcePoint" />
            <mxPoint x="344.33918139954494" y="650.0438604965875" as="targetPoint" />
          </mxGeometry>
        </mxCell>
        <mxCell id="iPS63DYJvoAkcIBALWGQ-31" value="" style="shape=flexArrow;endArrow=classic;html=1;rounded=0;width=0.3225806451612903;endSize=1.064804469273743;endWidth=2.980717246350694;strokeColor=#F19C99;" edge="1" parent="1" source="iPS63DYJvoAkcIBALWGQ-27" target="iPS63DYJvoAkcIBALWGQ-35">
          <mxGeometry width="50" height="50" relative="1" as="geometry">
            <mxPoint x="590" y="695" as="sourcePoint" />
            <mxPoint x="455" y="665" as="targetPoint" />
          </mxGeometry>
        </mxCell>
        <mxCell id="iPS63DYJvoAkcIBALWGQ-32" value="" style="shape=flexArrow;endArrow=classic;html=1;rounded=0;width=0.3225806451612903;endSize=1.064804469273743;endWidth=2.980717246350694;strokeColor=#F19C99;" edge="1" parent="1" source="iPS63DYJvoAkcIBALWGQ-35" target="iPS63DYJvoAkcIBALWGQ-29">
          <mxGeometry width="50" height="50" relative="1" as="geometry">
            <mxPoint x="580" y="730" as="sourcePoint" />
            <mxPoint x="600" y="745" as="targetPoint" />
          </mxGeometry>
        </mxCell>
        <mxCell id="iPS63DYJvoAkcIBALWGQ-34" value="&lt;font style=&quot;font-size: 10px;&quot;&gt;Robot Action&amp;nbsp;&lt;/font&gt;" style="ellipse;whiteSpace=wrap;html=1;aspect=fixed;fillColor=#FFFFFF;strokeColor=#F19C99;strokeWidth=2;dashed=1;dashPattern=8 8;" vertex="1" parent="1">
          <mxGeometry x="350" y="470" width="50" height="50" as="geometry" />
        </mxCell>
        <mxCell id="iPS63DYJvoAkcIBALWGQ-35" value="" style="ellipse;whiteSpace=wrap;html=1;aspect=fixed;fillColor=#000000;strokeColor=#000000;" vertex="1" parent="1">
          <mxGeometry x="330" y="520" width="10" height="10" as="geometry" />
        </mxCell>
        <mxCell id="iPS63DYJvoAkcIBALWGQ-36" value="" style="shape=flexArrow;endArrow=classic;html=1;rounded=0;width=0.3225806451612903;endSize=1.064804469273743;endWidth=2.980717246350694;strokeColor=#F19C99;" edge="1" parent="1" source="iPS63DYJvoAkcIBALWGQ-34" target="iPS63DYJvoAkcIBALWGQ-35">
          <mxGeometry width="50" height="50" relative="1" as="geometry">
            <mxPoint x="530" y="622.77" as="sourcePoint" />
            <mxPoint x="616.576385689822" y="727.2272271813727" as="targetPoint" />
          </mxGeometry>
        </mxCell>
        <mxCell id="iPS63DYJvoAkcIBALWGQ-37" value="&lt;font style=&quot;font-size: 14px;&quot;&gt;V&lt;sub&gt;damage&lt;/sub&gt;&lt;/font&gt;" style="ellipse;whiteSpace=wrap;html=1;aspect=fixed;fillColor=#FFFFFF;strokeColor=#080505;strokeWidth=1;" vertex="1" parent="1">
          <mxGeometry x="310" y="630" width="80" height="80" as="geometry" />
        </mxCell>
        <mxCell id="iPS63DYJvoAkcIBALWGQ-38" value="" style="shape=flexArrow;endArrow=classic;html=1;rounded=0;fillColor=#000000;width=0.3225806451612903;endSize=1.064804469273743;endWidth=2.980717246350694;" edge="1" parent="1" source="iPS63DYJvoAkcIBALWGQ-37" target="iPS63DYJvoAkcIBALWGQ-39">
          <mxGeometry width="50" height="50" relative="1" as="geometry">
            <mxPoint x="489" y="715" as="sourcePoint" />
            <mxPoint x="404" y="697" as="targetPoint" />
          </mxGeometry>
        </mxCell>
        <mxCell id="iPS63DYJvoAkcIBALWGQ-39" value="&lt;font style=&quot;font-size: 14px;&quot;&gt;H&lt;sub&gt;switch&lt;/sub&gt;&lt;/font&gt;" style="ellipse;whiteSpace=wrap;html=1;aspect=fixed;fillColor=#CCCCCC;" vertex="1" parent="1">
          <mxGeometry x="450" y="590" width="80" height="80" as="geometry" />
        </mxCell>
        <mxCell id="iPS63DYJvoAkcIBALWGQ-40" value="&lt;font style=&quot;font-size: 10px;&quot;&gt;Friction Wear&lt;/font&gt;" style="ellipse;whiteSpace=wrap;html=1;aspect=fixed;fillColor=#FFFFFF;strokeColor=#F19C99;strokeWidth=2;dashed=1;dashPattern=8 8;" vertex="1" parent="1">
          <mxGeometry x="450" y="720" width="50" height="50" as="geometry" />
        </mxCell>
        <mxCell id="iPS63DYJvoAkcIBALWGQ-41" value="&lt;font style=&quot;font-size: 10px;&quot;&gt;Nuisance Tripping&lt;/font&gt;" style="ellipse;whiteSpace=wrap;html=1;aspect=fixed;fillColor=#FFFFFF;strokeColor=#F19C99;strokeWidth=2;dashed=1;dashPattern=8 8;" vertex="1" parent="1">
          <mxGeometry x="550" y="700" width="50" height="50" as="geometry" />
        </mxCell>
        <mxCell id="iPS63DYJvoAkcIBALWGQ-42" value="" style="shape=flexArrow;endArrow=classic;html=1;rounded=0;width=0.3225806451612903;endSize=1.064804469273743;endWidth=2.980717246350694;strokeColor=#F19C99;" edge="1" parent="1" source="iPS63DYJvoAkcIBALWGQ-40" target="iPS63DYJvoAkcIBALWGQ-39">
          <mxGeometry width="50" height="50" relative="1" as="geometry">
            <mxPoint x="1050" y="506" as="sourcePoint" />
            <mxPoint x="1080" y="501" as="targetPoint" />
          </mxGeometry>
        </mxCell>
        <mxCell id="iPS63DYJvoAkcIBALWGQ-43" value="" style="shape=flexArrow;endArrow=classic;html=1;rounded=0;width=0.3225806451612903;endSize=1.064804469273743;endWidth=2.980717246350694;strokeColor=#F19C99;" edge="1" parent="1" source="iPS63DYJvoAkcIBALWGQ-41" target="iPS63DYJvoAkcIBALWGQ-39">
          <mxGeometry width="50" height="50" relative="1" as="geometry">
            <mxPoint x="488" y="730" as="sourcePoint" />
            <mxPoint x="495" y="680" as="targetPoint" />
          </mxGeometry>
        </mxCell>
        <mxCell id="iPS63DYJvoAkcIBALWGQ-44" value="&lt;font style=&quot;font-size: 14px;&quot;&gt;F&lt;sub&gt;switch&lt;/sub&gt;&lt;/font&gt;" style="ellipse;whiteSpace=wrap;html=1;aspect=fixed;fillColor=#A9C4EB;" vertex="1" parent="1">
          <mxGeometry x="490" y="470" width="80" height="80" as="geometry" />
        </mxCell>
        <mxCell id="iPS63DYJvoAkcIBALWGQ-45" value="" style="shape=flexArrow;endArrow=classic;html=1;rounded=0;fillColor=#000000;width=0.3225806451612903;endSize=1.064804469273743;endWidth=2.980717246350694;" edge="1" parent="1" source="iPS63DYJvoAkcIBALWGQ-39" target="iPS63DYJvoAkcIBALWGQ-44">
          <mxGeometry width="50" height="50" relative="1" as="geometry">
            <mxPoint x="398" y="669" as="sourcePoint" />
            <mxPoint x="462" y="651" as="targetPoint" />
          </mxGeometry>
        </mxCell>
        <mxCell id="iPS63DYJvoAkcIBALWGQ-46" value="&lt;b&gt;&lt;font style=&quot;font-size: 18px;&quot;&gt;Switch&lt;/font&gt;&lt;/b&gt;" style="text;html=1;strokeColor=none;fillColor=none;align=center;verticalAlign=middle;whiteSpace=wrap;rounded=0;" vertex="1" parent="1">
          <mxGeometry x="410" y="400" width="60" height="30" as="geometry" />
        </mxCell>
      </root>
    </mxGraphModel>
  </diagram>
</mxfile>
